{"title":"Hungry.Hearts.2014.1080p.BluRay.REMUX.AVC.DD2.0-RARBG","uid":12036941,"size":13198016010,"categoryP":"video","categoryS":"hd___movies","magnet":"?xt=urn:btih:5a850066b658eb3e420086cf478e0082156b0c00&amp;dn=Hungry.Hearts.2014.1080p.BluRay.REMUX.AVC.DD2.0-RARBG&amp;tr=udp%3A%2F%2Ftracker.openbittorrent.com%3A80&amp;tr=udp%3A%2F%2Fopen.demonii.com%3A1337&amp;tr=udp%3A%2F%2Ftracker.coppersurfer.tk%3A6969&amp;tr=udp%3A%2F%2Fexodus.desync.com%3A6969","seeders":1,"leechers":4,"uploader":"vickey1992","files":5,"time":1434701170,"description":"Video\nID                                       : 1\nFormat                                   : AVC\nFormat/Info                              : Advanced Video Codec\nFormat profile                           : &lt;a class=&quot;__cf_email__&quot; href=&quot;/cdn-cgi/l/email-protection&quot; data-cfemail=&quot;236b4a444b636f170d12&quot;&gt;[email&amp;#160;protected]&lt;/a&gt;&lt;script data-cfhash='f9e31' type=&quot;text/javascript&quot;&gt;\n/* &lt;![CDATA[ */!function(){try{var t=&quot;currentScript&quot;in document?document.currentScript:function(){for(var t=document.getElementsByTagName(&quot;script&quot;),e=t.length;e--;)if(t[e].getAttribute(&quot;data-cfhash&quot;))return t[e]}();if(t&amp;&amp;t.previousSibling){var e,r,n,i,c=t.previousSibling,a=c.getAttribute(&quot;data-cfemail&quot;);if(a){for(e=&quot;&quot;,r=parseInt(a.substr(0,2),16),n=2;a.length-n;n+=2)i=parseInt(a.substr(n,2),16)^r,e+=String.fromCharCode(i);e=document.createTextNode(e),c.parentNode.replaceChild(e,c)}t.parentNode.removeChild(t);}}catch(u){}}()/* ]]&gt; */&lt;/script&gt;\nFormat settings, CABAC                   : Yes\nFormat settings, ReFrames                : 4 frames\nFormat settings, GOP                     : M=3, N=18\nCodec ID                                 : V_MPEG4/ISO/AVC\nDuration                                 : 1h 52mn\nBit rate mode                            : Variable\nBit rate                                 : 14.7 Mbps\nMaximum bit rate                         : 30.0 Mbps\nWidth                                    : 1 920 pixels\nHeight                                   : 1 080 pixels\nDisplay aspect ratio                     : 16:9\nFrame rate mode                          : Constant\nFrame rate                               : 24.000 fps\nStandard                                 : PAL\nColor space                              : YUV\nChroma subsampling                       : 4:2:0\nBit depth                                : 8 bits\nScan type                                : Progressive\nBits/(Pixel*Frame)                       : 0.295\nStream size                              : 11.5 GiB (94%)\nTitle                                    : Hungry.Hearts.2014.1080p.BluRay.REMUX.AVC.DD2.0-RARBG\nLanguage                                 : English\nDefault                                  : No\nForced                                   : No\nColor range                              : Limited\nColor primaries                          : BT.709\nTransfer characteristics                 : BT.709\nMatrix coefficients                      : BT.709\n\nAudio\nID                                       : 2\nFormat                                   : AC-3\nFormat/Info                              : Audio Coding 3\nMode extension                           : CM (complete main)\nFormat settings, Endianness              : Big\nCodec ID                                 : A_AC3\nDuration                                 : 1h 52mn\nBit rate mode                            : Constant\nBit rate                                 : 640 Kbps\nChannel(s)                               : 2 channels\nChannel positions                        : Front: L R\nSampling rate                            : 48.0 KHz\nBit depth                                : 16 bits\nCompression mode                         : Lossy\nStream size                              : 515 MiB (4%)\nTitle                                    : Hungry.Hearts.2014.1080p.BluRay.REMUX.AVC.DD2.0-RARBG\nLanguage                                 : English\nDefault                                  : Yes\nForced                                   : No\n\nText\nID                                       : 3\nFormat                                   : UTF-8\nCodec ID                                 : S_TEXT/UTF8\nCodec ID/Info                            : UTF-8 Plain Text\nTitle                                    : FORCED\nLanguage                                 : English\nDefault                                  : Yes\nForced                                   : Yes\n\nMenu\n00:00:00.000                             : en:Chapter 01\n00:10:37.125                             : en:Chapter 02\n00:19:56.625                             : en:Chapter 03\n00:30:32.125                             : en:Chapter 04\n00:39:22.625                             : en:Chapter 05\n00:52:09.958                             : en:Chapter 06\n01:02:05.416                             : en:Chapter 07\n01:11:12.833                             : en:Chapter 08\n01:21:27.083                             : en:Chapter 09\n01:27:09.708                             : en:Chapter 10\n01:33:07.291                             : en:Chapter 11\n01:41:27.833                             : en:Chapter 12","torrent":{"xt":"urn:btih:5a850066b658eb3e420086cf478e0082156b0c00","amp;dn":"Hungry.Hearts.2014.1080p.BluRay.REMUX.AVC.DD2.0-RARBG","amp;tr":["udp%3A%2F%2Ftracker.openbittorrent.com%3A80","udp%3A%2F%2Fopen.demonii.com%3A1337","udp%3A%2F%2Ftracker.coppersurfer.tk%3A6969","udp%3A%2F%2Fexodus.desync.com%3A6969"],"infoHash":"5a850066b658eb3e420086cf478e0082156b0c00","infoHashBuffer":{"type":"Buffer","data":[90,133,0,102,182,88,235,62,66,0,134,207,71,142,0,130,21,107,12,0]},"announce":[],"urlList":[]}}